<svg width="32" height="32" viewBox="0 0 32 32" fill="none" xmlns="http://www.w3.org/2000/svg">
<path d="M17.1867 7.84H6.81333C4.53333 7.84 2.66669 9.70665 2.66669 11.9867V27.1333C2.66669 29.0667 4.05335 29.8933 5.74668 28.9467L10.9867 26.0267C11.5467 25.72 12.4534 25.72 13 26.0267L18.24 28.9467C19.9333 29.8933 21.32 29.0667 21.32 27.1333V11.9867C21.3333 9.70665 19.4667 7.84 17.1867 7.84Z" stroke="#5B5D67" stroke-width="2" stroke-linecap="round" stroke-linejoin="round"/>
<path d="M21.3334 11.9867V27.1333C21.3334 29.0667 19.9467 29.88 18.2534 28.9467L13.0134 26.0267C12.4534 25.72 11.5467 25.72 10.9867 26.0267L5.74668 28.9467C4.05335 29.88 2.66669 29.0667 2.66669 27.1333V11.9867C2.66669 9.70665 4.53333 7.84 6.81333 7.84H17.1867C19.4667 7.84 21.3334 9.70665 21.3334 11.9867Z" stroke="#5B5D67" stroke-width="2" stroke-linecap="round" stroke-linejoin="round"/>
<path d="M29.3334 6.81331V21.96C29.3334 23.8933 27.9467 24.7066 26.2534 23.7733L21.3334 21.0267V11.9867C21.3334 9.70665 19.4667 7.84 17.1867 7.84H10.6667V6.81331C10.6667 4.53331 12.5333 2.66666 14.8133 2.66666H25.1867C27.4667 2.66666 29.3334 4.53331 29.3334 6.81331Z" stroke="#5B5D67" stroke-width="2" stroke-linecap="round" stroke-linejoin="round"/>
</svg>
